<svg width="113" height="210" viewBox="0 0 113 210" fill="none" xmlns="http://www.w3.org/2000/svg">
<path opacity="0.45" d="M148.768 105.055C198.068 115.582 225 44.257 225 44.257C219.24 53.532 214.131 52.5813 187.112 50.4945C160.093 48.4076 135.835 68.6271 135.835 68.6271C96.9036 -48.6554 0 19.9333 0 19.9333C4.10491 40.753 14.488 59.5659 29.5623 73.4964C23.9759 79.6643 17.1505 88.6612 19.259 93.9016C21.6935 100.046 37.6703 91.3972 46.5824 85.9714C48.2779 86.9684 49.9951 87.896 51.7123 88.7771C52.3862 97.542 53.6687 120.335 49.3865 131.72C49.3865 131.72 69.4932 138.422 81.2095 99.4433C94.3101 102.549 107.729 103.859 121.14 103.339C121.14 103.339 96.9253 161.609 112.011 171.649C127.096 181.69 134.965 209.329 134.965 209.329C177.678 169.562 148.768 105.055 148.768 105.055Z" fill="#FE7D1E"/>
</svg>
