<svg width="84" height="210" viewBox="0 0 84 210" fill="none" xmlns="http://www.w3.org/2000/svg">
<path opacity="0.45" d="M-64.7682 105.055C-114.068 115.582 -141 44.257 -141 44.257C-135.24 53.532 -130.131 52.5813 -103.112 50.4945C-76.0931 48.4076 -51.8347 68.6271 -51.8347 68.6271C-12.9036 -48.6554 84 19.9333 84 19.9333C79.8951 40.753 69.512 59.5659 54.4377 73.4964C60.0241 79.6643 66.8495 88.6612 64.741 93.9016C62.3065 100.046 46.3297 91.3972 37.4176 85.9714C35.7221 86.9684 34.0049 87.896 32.2877 88.7771C31.6138 97.542 30.3313 120.335 34.6135 131.72C34.6135 131.72 14.5068 138.422 2.7905 99.4433C-10.3101 102.549 -23.7289 103.859 -37.1404 103.339C-37.1404 103.339 -12.9253 161.609 -28.0108 171.649C-43.0963 181.69 -50.9651 209.329 -50.9651 209.329C-93.6784 169.562 -64.7682 105.055 -64.7682 105.055Z" fill="#FE7D1E"/>
</svg>
