<svg width="100" height="100" viewBox="0 0 100 100" fill="none" xmlns="http://www.w3.org/2000/svg">
<g clip-path="url(#clip0_108_75)">
<rect width="100" height="100" fill="#051D41"/>
<path d="M65.9156 51.6486L34.1111 100H2L2 0H34.1111L65.9156 48.3514C66.5737 49.3519 66.5737 50.6481 65.9156 51.6486Z" fill="#FF5474"/>
<path d="M34.1111 100V101.5H34.9199L35.3643 100.824L34.1111 100ZM65.9156 51.6486L67.1688 52.473L67.1688 52.473L65.9156 51.6486ZM65.9156 48.3514L67.1688 47.527L67.1688 47.527L65.9156 48.3514ZM34.1111 0L35.3643 -0.824322L34.9199 -1.5H34.1111V0ZM2 100H0.5V101.5H2V100ZM2 0V-1.5H0.5V0H2ZM35.3643 100.824L67.1688 52.473L64.6624 50.8243L32.8579 99.1757L35.3643 100.824ZM67.1688 47.527L35.3643 -0.824322L32.8579 0.824322L64.6624 49.1757L67.1688 47.527ZM34.1111 98.5H2V101.5H34.1111V98.5ZM3.5 100L3.5 0H0.5L0.5 100H3.5ZM2 1.5H34.1111V-1.5H2V1.5ZM67.1688 52.473C68.156 50.9721 68.156 49.0279 67.1688 47.527L64.6624 49.1757C64.9914 49.676 64.9914 50.324 64.6624 50.8243L67.1688 52.473Z" fill="#FF5474"/>
<path d="M44.8311 53.2973L15.8889 97.2973C15.0189 98.6199 14.5839 99.2813 13.9174 99.6406C13.2508 100 12.4593 100 10.8761 100H-12C-14.8284 100 -16.2426 100 -17.1213 99.1213C-18 98.2426 -18 96.8284 -18 94L-18 6C-18 3.17157 -18 1.75736 -17.1213 0.878677C-16.2426 0 -14.8284 0 -12 0H10.8761C12.4593 0 13.2508 0 13.9174 0.35936C14.5839 0.718727 15.0189 1.38005 15.8889 2.70271L44.8311 46.7027C45.8832 48.3021 46.4092 49.1018 46.4092 50C46.4092 50.8982 45.8832 51.6979 44.8311 53.2973Z" fill="#FF94A8"/>
<path d="M25.9156 51.6486L-5.88889 100H-38L-38 0H-5.88889L25.9156 48.3514C26.5737 49.3519 26.5737 50.6481 25.9156 51.6486Z" fill="#FFCCD6"/>
</g>
<defs>
<clipPath id="clip0_108_75">
<rect width="100" height="100" fill="white"/>
</clipPath>
</defs>
</svg>
